<svg xmlns="http://www.w3.org/2000/svg" viewBox="0 0 24 24" class=" "><g fill="none" fill-rule="evenodd"><path fill="#C370E0" d="M4 20.5v-17a2 2 0 012-2h12a2 2 0 012 2v17a2 2 0 01-2 2H6a2 2 0 01-2-2"></path><path fill="#FFF" d="M10.5 7.5h3v-3h-3z"></path><path fill="#2272E6" d="M17 23a6 6 0 100-12 6 6 0 000 12"></path><path fill="#FFF" d="M17.38 13.89l.757 1.531a.417.417 0 00.315.228l1.69.246c.343.05.48.471.232.713L19.15 17.8a.418.418 0 00-.121.37l.289 1.684a.418.418 0 01-.606.44L17.2 19.5a.418.418 0 00-.39 0l-1.511.795a.418.418 0 01-.607-.44l.289-1.684a.415.415 0 00-.12-.37l-1.223-1.192a.418.418 0 01.232-.713l1.69-.246a.417.417 0 00.315-.228l.756-1.532a.417.417 0 01.749 0"></path></g></svg>