<svg xmlns="http://www.w3.org/2000/svg" viewBox="0 0 24 24" class=" "><g fill="none" fill-rule="evenodd"><path stroke="#4E5968" stroke-linecap="round" stroke-width="2" d="M6.93 1.8v2M17.07 1.8v2"></path><path fill="#E2E5E8" d="M19.7 2.8H4.3a2 2 0 00-2 2v15.4a2 2 0 002 2h15.4a2 2 0 002-2V4.8a2 2 0 00-2-2"></path><path stroke="#15C07E" stroke-linecap="round" stroke-linejoin="round" stroke-width="1.8" d="M16.248 9.57L14.4 16.28c-.056.201-.341.201-.397 0l-1.806-6.56c-.055-.2-.341-.2-.396 0l-1.806 6.56c-.055.201-.341.201-.396 0L7.752 9.57M15.303 13H18M8.697 13H5.999"></path></g></svg>