<svg xmlns="http://www.w3.org/2000/svg" viewBox="0 0 24 24" class=" "><g fill="none" fill-rule="evenodd"><path fill="#15C07E" d="M11.922.501L2.84 4.231a1.046 1.046 0 00-.648.968v8.305c0 3.923 5.13 7.735 9.731 9.997 4.602-2.262 9.731-6.074 9.731-9.997V5.199c0-.424-.256-.806-.648-.967L11.922.502z"></path><path fill="#FFF" d="M9.385 14.256c2.367 2.367 4.16 2.905 5.59 2.564.795-.188 1.503-.835 1.976-1.373a.945.945 0 00-.14-1.369l-1.89-1.463a.475.475 0 00-.626.04l-1.003 1.004a.473.473 0 01-.582.071c-.323-.199-.863-.582-1.54-1.259-.677-.677-1.06-1.218-1.26-1.54a.473.473 0 01.072-.582l1.004-1.004a.475.475 0 00.04-.625L9.563 6.83a.945.945 0 00-1.369-.14C7.656 7.163 7.01 7.87 6.82 8.666c-.34 1.43.198 3.225 2.565 5.59z"></path></g></svg>